<mxfile host="Electron" modified="2024-03-06T09:07:55.922Z" agent="Mozilla/5.0 (Windows NT 10.0; Win64; x64) AppleWebKit/537.36 (KHTML, like Gecko) draw.io/21.4.0 Chrome/112.0.5615.204 Electron/24.5.1 Safari/537.36" etag="ZSM6iBmsYCr9R2hCblUK" version="21.4.0" type="device">
  <diagram name="第 1 页" id="l605pMVOLH8C5ocWz7VU">
    <mxGraphModel dx="277" dy="160" grid="1" gridSize="10" guides="1" tooltips="1" connect="1" arrows="1" fold="1" page="1" pageScale="1" pageWidth="4681" pageHeight="3300" math="0" shadow="0">
      <root>
        <mxCell id="0" />
        <mxCell id="1" parent="0" />
        <mxCell id="-HXkKTx_CWOXMutg7gVv-1" value="" style="endArrow=none;html=1;rounded=0;" edge="1" parent="1">
          <mxGeometry width="50" height="50" relative="1" as="geometry">
            <mxPoint x="520" y="1040" as="sourcePoint" />
            <mxPoint x="880" y="1040" as="targetPoint" />
          </mxGeometry>
        </mxCell>
        <mxCell id="-HXkKTx_CWOXMutg7gVv-2" value="" style="endArrow=none;html=1;rounded=0;" edge="1" parent="1">
          <mxGeometry width="50" height="50" relative="1" as="geometry">
            <mxPoint x="520" y="1040" as="sourcePoint" />
            <mxPoint x="520" y="810" as="targetPoint" />
          </mxGeometry>
        </mxCell>
        <mxCell id="-HXkKTx_CWOXMutg7gVv-4" value="" style="endArrow=none;html=1;rounded=0;fontSize=8;strokeWidth=0.5;" edge="1" parent="1">
          <mxGeometry width="50" height="50" relative="1" as="geometry">
            <mxPoint x="518" y="1030" as="sourcePoint" />
            <mxPoint x="520" y="1030" as="targetPoint" />
          </mxGeometry>
        </mxCell>
        <mxCell id="-HXkKTx_CWOXMutg7gVv-5" value="" style="endArrow=none;html=1;rounded=0;fontSize=8;strokeWidth=0.5;" edge="1" parent="1">
          <mxGeometry width="50" height="50" relative="1" as="geometry">
            <mxPoint x="520" y="1020" as="sourcePoint" />
            <mxPoint x="517" y="1020" as="targetPoint" />
          </mxGeometry>
        </mxCell>
        <mxCell id="-HXkKTx_CWOXMutg7gVv-8" value="" style="group" vertex="1" connectable="0" parent="1">
          <mxGeometry x="517" y="1000" width="3" height="10" as="geometry" />
        </mxCell>
        <mxCell id="-HXkKTx_CWOXMutg7gVv-6" value="" style="endArrow=none;html=1;rounded=0;fontSize=8;strokeWidth=0.5;" edge="1" parent="-HXkKTx_CWOXMutg7gVv-8">
          <mxGeometry width="50" height="50" relative="1" as="geometry">
            <mxPoint x="1" y="10" as="sourcePoint" />
            <mxPoint x="3" y="10" as="targetPoint" />
          </mxGeometry>
        </mxCell>
        <mxCell id="-HXkKTx_CWOXMutg7gVv-7" value="" style="endArrow=none;html=1;rounded=0;fontSize=8;strokeWidth=0.5;" edge="1" parent="-HXkKTx_CWOXMutg7gVv-8">
          <mxGeometry width="50" height="50" relative="1" as="geometry">
            <mxPoint x="3" as="sourcePoint" />
            <mxPoint as="targetPoint" />
          </mxGeometry>
        </mxCell>
        <mxCell id="-HXkKTx_CWOXMutg7gVv-9" value="" style="group" vertex="1" connectable="0" parent="1">
          <mxGeometry x="517" y="980" width="3" height="10" as="geometry" />
        </mxCell>
        <mxCell id="-HXkKTx_CWOXMutg7gVv-10" value="" style="endArrow=none;html=1;rounded=0;fontSize=8;strokeWidth=0.5;" edge="1" parent="-HXkKTx_CWOXMutg7gVv-9">
          <mxGeometry width="50" height="50" relative="1" as="geometry">
            <mxPoint x="1" y="10" as="sourcePoint" />
            <mxPoint x="3" y="10" as="targetPoint" />
          </mxGeometry>
        </mxCell>
        <mxCell id="-HXkKTx_CWOXMutg7gVv-11" value="" style="endArrow=none;html=1;rounded=0;fontSize=8;strokeWidth=0.5;" edge="1" parent="-HXkKTx_CWOXMutg7gVv-9">
          <mxGeometry width="50" height="50" relative="1" as="geometry">
            <mxPoint x="3" as="sourcePoint" />
            <mxPoint as="targetPoint" />
          </mxGeometry>
        </mxCell>
        <mxCell id="-HXkKTx_CWOXMutg7gVv-12" value="" style="group" vertex="1" connectable="0" parent="1">
          <mxGeometry x="517" y="960" width="3" height="10" as="geometry" />
        </mxCell>
        <mxCell id="-HXkKTx_CWOXMutg7gVv-13" value="" style="endArrow=none;html=1;rounded=0;fontSize=8;strokeWidth=0.5;" edge="1" parent="-HXkKTx_CWOXMutg7gVv-12">
          <mxGeometry width="50" height="50" relative="1" as="geometry">
            <mxPoint x="1" y="10" as="sourcePoint" />
            <mxPoint x="3" y="10" as="targetPoint" />
          </mxGeometry>
        </mxCell>
        <mxCell id="-HXkKTx_CWOXMutg7gVv-14" value="" style="endArrow=none;html=1;rounded=0;fontSize=8;strokeWidth=0.5;" edge="1" parent="-HXkKTx_CWOXMutg7gVv-12">
          <mxGeometry width="50" height="50" relative="1" as="geometry">
            <mxPoint x="3" as="sourcePoint" />
            <mxPoint as="targetPoint" />
          </mxGeometry>
        </mxCell>
        <mxCell id="-HXkKTx_CWOXMutg7gVv-15" value="" style="group" vertex="1" connectable="0" parent="1">
          <mxGeometry x="517" y="940" width="3" height="10" as="geometry" />
        </mxCell>
        <mxCell id="-HXkKTx_CWOXMutg7gVv-16" value="" style="endArrow=none;html=1;rounded=0;fontSize=8;strokeWidth=0.5;" edge="1" parent="-HXkKTx_CWOXMutg7gVv-15">
          <mxGeometry width="50" height="50" relative="1" as="geometry">
            <mxPoint x="1" y="10" as="sourcePoint" />
            <mxPoint x="3" y="10" as="targetPoint" />
          </mxGeometry>
        </mxCell>
        <mxCell id="-HXkKTx_CWOXMutg7gVv-17" value="" style="endArrow=none;html=1;rounded=0;fontSize=8;strokeWidth=0.5;" edge="1" parent="-HXkKTx_CWOXMutg7gVv-15">
          <mxGeometry width="50" height="50" relative="1" as="geometry">
            <mxPoint x="3" as="sourcePoint" />
            <mxPoint as="targetPoint" />
          </mxGeometry>
        </mxCell>
        <mxCell id="-HXkKTx_CWOXMutg7gVv-18" value="" style="group;rotation=-90;" vertex="1" connectable="0" parent="1">
          <mxGeometry x="523" y="1036" width="3" height="10" as="geometry" />
        </mxCell>
        <mxCell id="-HXkKTx_CWOXMutg7gVv-19" value="" style="endArrow=none;html=1;rounded=0;fontSize=8;strokeWidth=0.5;" edge="1" parent="-HXkKTx_CWOXMutg7gVv-18">
          <mxGeometry width="50" height="50" relative="1" as="geometry">
            <mxPoint x="7" y="6" as="sourcePoint" />
            <mxPoint x="7" y="4" as="targetPoint" />
          </mxGeometry>
        </mxCell>
        <mxCell id="-HXkKTx_CWOXMutg7gVv-20" value="" style="endArrow=none;html=1;rounded=0;fontSize=8;strokeWidth=0.5;" edge="1" parent="-HXkKTx_CWOXMutg7gVv-18">
          <mxGeometry width="50" height="50" relative="1" as="geometry">
            <mxPoint x="-3" y="4" as="sourcePoint" />
            <mxPoint x="-3" y="7" as="targetPoint" />
          </mxGeometry>
        </mxCell>
        <mxCell id="-HXkKTx_CWOXMutg7gVv-21" value="" style="group;rotation=-90;" vertex="1" connectable="0" parent="1">
          <mxGeometry x="543" y="1036" width="3" height="10" as="geometry" />
        </mxCell>
        <mxCell id="-HXkKTx_CWOXMutg7gVv-22" value="" style="endArrow=none;html=1;rounded=0;fontSize=8;strokeWidth=0.5;" edge="1" parent="-HXkKTx_CWOXMutg7gVv-21">
          <mxGeometry width="50" height="50" relative="1" as="geometry">
            <mxPoint x="7" y="6" as="sourcePoint" />
            <mxPoint x="7" y="4" as="targetPoint" />
          </mxGeometry>
        </mxCell>
        <mxCell id="-HXkKTx_CWOXMutg7gVv-23" value="" style="endArrow=none;html=1;rounded=0;fontSize=8;strokeWidth=0.5;" edge="1" parent="-HXkKTx_CWOXMutg7gVv-21">
          <mxGeometry width="50" height="50" relative="1" as="geometry">
            <mxPoint x="-3" y="4" as="sourcePoint" />
            <mxPoint x="-3" y="7" as="targetPoint" />
          </mxGeometry>
        </mxCell>
        <mxCell id="-HXkKTx_CWOXMutg7gVv-24" value="" style="group;rotation=-90;" vertex="1" connectable="0" parent="1">
          <mxGeometry x="563" y="1036" width="3" height="10" as="geometry" />
        </mxCell>
        <mxCell id="-HXkKTx_CWOXMutg7gVv-25" value="" style="endArrow=none;html=1;rounded=0;fontSize=8;strokeWidth=0.5;" edge="1" parent="-HXkKTx_CWOXMutg7gVv-24">
          <mxGeometry width="50" height="50" relative="1" as="geometry">
            <mxPoint x="7" y="6" as="sourcePoint" />
            <mxPoint x="7" y="4" as="targetPoint" />
          </mxGeometry>
        </mxCell>
        <mxCell id="-HXkKTx_CWOXMutg7gVv-26" value="" style="endArrow=none;html=1;rounded=0;fontSize=8;strokeWidth=0.5;" edge="1" parent="-HXkKTx_CWOXMutg7gVv-24">
          <mxGeometry width="50" height="50" relative="1" as="geometry">
            <mxPoint x="-3" y="4" as="sourcePoint" />
            <mxPoint x="-3" y="7" as="targetPoint" />
          </mxGeometry>
        </mxCell>
        <mxCell id="-HXkKTx_CWOXMutg7gVv-27" value="" style="group;rotation=-90;" vertex="1" connectable="0" parent="1">
          <mxGeometry x="583" y="1036" width="3" height="10" as="geometry" />
        </mxCell>
        <mxCell id="-HXkKTx_CWOXMutg7gVv-28" value="" style="endArrow=none;html=1;rounded=0;fontSize=8;strokeWidth=0.5;" edge="1" parent="-HXkKTx_CWOXMutg7gVv-27">
          <mxGeometry width="50" height="50" relative="1" as="geometry">
            <mxPoint x="7" y="6" as="sourcePoint" />
            <mxPoint x="7" y="4" as="targetPoint" />
          </mxGeometry>
        </mxCell>
        <mxCell id="-HXkKTx_CWOXMutg7gVv-29" value="" style="endArrow=none;html=1;rounded=0;fontSize=8;strokeWidth=0.5;" edge="1" parent="-HXkKTx_CWOXMutg7gVv-27">
          <mxGeometry width="50" height="50" relative="1" as="geometry">
            <mxPoint x="-3" y="4" as="sourcePoint" />
            <mxPoint x="-3" y="7" as="targetPoint" />
          </mxGeometry>
        </mxCell>
        <mxCell id="-HXkKTx_CWOXMutg7gVv-30" value="" style="group;rotation=-90;" vertex="1" connectable="0" parent="1">
          <mxGeometry x="603" y="1036" width="3" height="10" as="geometry" />
        </mxCell>
        <mxCell id="-HXkKTx_CWOXMutg7gVv-31" value="" style="endArrow=none;html=1;rounded=0;fontSize=8;strokeWidth=0.5;" edge="1" parent="-HXkKTx_CWOXMutg7gVv-30">
          <mxGeometry width="50" height="50" relative="1" as="geometry">
            <mxPoint x="7" y="6" as="sourcePoint" />
            <mxPoint x="7" y="4" as="targetPoint" />
          </mxGeometry>
        </mxCell>
        <mxCell id="-HXkKTx_CWOXMutg7gVv-32" value="" style="endArrow=none;html=1;rounded=0;fontSize=8;strokeWidth=0.5;" edge="1" parent="-HXkKTx_CWOXMutg7gVv-30">
          <mxGeometry width="50" height="50" relative="1" as="geometry">
            <mxPoint x="-3" y="4" as="sourcePoint" />
            <mxPoint x="-3" y="7" as="targetPoint" />
          </mxGeometry>
        </mxCell>
        <mxCell id="-HXkKTx_CWOXMutg7gVv-33" value="" style="group;rotation=-90;" vertex="1" connectable="0" parent="1">
          <mxGeometry x="623" y="1036" width="3" height="10" as="geometry" />
        </mxCell>
        <mxCell id="-HXkKTx_CWOXMutg7gVv-34" value="" style="endArrow=none;html=1;rounded=0;fontSize=8;strokeWidth=0.5;" edge="1" parent="-HXkKTx_CWOXMutg7gVv-33">
          <mxGeometry width="50" height="50" relative="1" as="geometry">
            <mxPoint x="7" y="6" as="sourcePoint" />
            <mxPoint x="7" y="4" as="targetPoint" />
          </mxGeometry>
        </mxCell>
        <mxCell id="-HXkKTx_CWOXMutg7gVv-35" value="" style="endArrow=none;html=1;rounded=0;fontSize=8;strokeWidth=0.5;" edge="1" parent="-HXkKTx_CWOXMutg7gVv-33">
          <mxGeometry width="50" height="50" relative="1" as="geometry">
            <mxPoint x="-3" y="4" as="sourcePoint" />
            <mxPoint x="-3" y="7" as="targetPoint" />
          </mxGeometry>
        </mxCell>
      </root>
    </mxGraphModel>
  </diagram>
</mxfile>
